<?xml version="1.0" standalone="no"?>
<!DOCTYPE svg PUBLIC "-//W3C//DTD SVG 20010904//EN"
 "http://www.w3.org/TR/2001/REC-SVG-20010904/DTD/svg10.dtd">
<svg version="1.0" xmlns="http://www.w3.org/2000/svg"
 width="577.000000pt" height="577.000000pt" viewBox="0 0 577.000000 577.000000"
 preserveAspectRatio="xMidYMid meet">
<metadata>
Created by potrace 1.14, written by Peter Selinger 2001-2017
</metadata>
<g transform="translate(0.000000,577.000000) scale(0.100000,-0.100000)"
fill="#000000" stroke="none">
<path d="M3362 4368 c-7 -7 -12 -17 -12 -24 0 -6 -6 -14 -14 -17 -7 -3 -17
-18 -20 -33 -4 -15 -13 -36 -21 -47 -12 -18 -15 -16 -39 25 -31 54 -78 99 -92
90 -18 -12 -54 -70 -54 -86 0 -9 -4 -16 -9 -16 -15 0 -38 -101 -40 -177 -1
-17 -10 -25 -43 -34 -24 -6 -51 -18 -60 -26 -10 -9 -18 -13 -18 -9 0 8 -75
-46 -78 -56 -2 -4 -13 -19 -27 -34 -13 -14 -24 -29 -23 -33 0 -3 0 -8 -2 -11
-1 -3 -4 -16 -6 -30 -6 -34 -8 -35 -100 -87 -75 -41 -84 -56 -79 -126 5 -81 5
-80 41 -154 32 -64 30 -80 -8 -87 -24 -4 -188 -89 -188 -98 0 -4 -7 -8 -16 -8
-13 0 -15 9 -9 63 11 96 13 272 3 335 -20 140 -91 254 -172 279 -47 14 -181 8
-206 -10 -20 -14 -20 -14 2 -42 77 -98 71 -336 -12 -504 -35 -70 -118 -202
-134 -213 -7 -5 -7 -8 -1 -8 6 0 6 -3 -1 -8 -11 -8 -60 -87 -89 -147 -11 -22
-22 -42 -25 -45 -20 -20 -95 -247 -109 -330 -26 -158 -30 -198 -23 -214 3 -4
6 -27 9 -50 5 -55 11 -91 13 -91 1 0 3 -9 4 -20 9 -75 106 -268 159 -317 16
-16 26 -28 22 -28 -4 0 8 -15 28 -32 19 -18 53 -49 74 -68 73 -67 183 -142
294 -199 132 -69 246 -110 354 -127 22 -3 43 -8 47 -10 4 -3 29 -7 55 -10 26
-3 62 -8 78 -10 17 -3 85 -7 152 -11 197 -9 217 9 189 167 -19 107 -25 305
-12 415 11 101 15 118 41 195 15 41 31 90 37 108 6 17 15 32 20 32 9 0 7 -25
-6 -80 -29 -130 -27 -532 4 -560 3 -3 7 -16 9 -30 5 -37 57 -135 88 -167 31
-30 81 -59 101 -57 6 1 20 2 30 3 27 2 60 68 67 136 4 33 8 71 10 85 7 48 16
115 20 147 2 18 6 36 8 40 3 4 8 37 11 72 4 36 9 68 11 72 3 3 7 24 11 45 11
72 64 272 91 344 7 18 6 15 33 119 12 47 23 97 25 113 2 15 6 35 9 45 3 10 7
36 11 58 3 22 7 47 10 55 12 43 19 187 19 370 0 224 -7 320 -28 395 -2 6 -6
28 -10 50 -7 35 -22 84 -45 150 -17 47 -57 124 -92 175 -44 67 -72 120 -63
120 4 0 1 7 -6 15 -6 8 -9 18 -6 23 8 14 -81 183 -116 219 -34 35 -56 41 -76
21z"/>
</g>
</svg>
